<svg id="Component_140_2" data-name="Component 140 – 2" xmlns="http://www.w3.org/2000/svg" xmlns:xlink="http://www.w3.org/1999/xlink" width="49.296" height="49.295" viewBox="0 0 49.296 49.295">
  <defs>
    <clipPath id="clip-path">
      <rect id="Rectangle_46" data-name="Rectangle 46" width="49.296" height="49.295" fill="#fff" stroke="#707070" stroke-width="1"/>
    </clipPath>
  </defs>
  <g id="Mask_Group_6" data-name="Mask Group 6" clip-path="url(#clip-path)">
    <g id="Group_179" data-name="Group 179" transform="translate(0 0.855)">
      <path id="Path_23" data-name="Path 23" d="M5.05,15.943H3.367v-5.88H1.683A1.673,1.673,0,0,1,.421,7.281L6.3.548a1.7,1.7,0,0,1,2.5,0l5.892,6.733a1.673,1.673,0,0,1-1.262,2.782H11.748v1.683H10.065V8.38H13.42L7.528,1.658,1.66,8.392,5.015,8.38v7.563Z" transform="translate(15.103 0)" fill="#fff"/>
      <path id="Path_24" data-name="Path 24" d="M5.038,16.773H3.355V10.052H1.683A1.666,1.666,0,0,1,0,8.38a1.7,1.7,0,0,1,.421-1.1L6.3.548a1.7,1.7,0,0,1,2.5,0l5.892,6.733a1.673,1.673,0,0,1-1.262,2.782H11.748v4.2H10.065V8.38H13.42L7.528,1.658,1.66,8.392,5.015,8.38v8.393Z" transform="translate(0 6.721)" fill="#fff"/>
      <path id="Path_27" data-name="Path 27" d="M9.235,10.059H7.552v-4.2h2.525l-4.2-4.2-4.2,4.2H4.208v4.2H2.525V7.546H1.683A1.684,1.684,0,0,1,0,5.862,1.711,1.711,0,0,1,.491,4.67l4.2-4.2a1.724,1.724,0,0,1,2.373,0l4.2,4.2a1.686,1.686,0,0,1-1.192,2.876H9.223v2.513Z" transform="translate(34.438 1.688)" fill="#fff"/>
      <path id="Path_28" data-name="Path 28" d="M7.154,34.683,0,27.693l1.169-1.2,5.529,5.4.842-1.648a15.18,15.18,0,0,1,2.817-3.9A14.185,14.185,0,0,1,15,23.286l3.343-1.531a13.37,13.37,0,0,0,6.7-6.312l1.029-2.128L15.524,2.77l-.877,1.578A14.978,14.978,0,0,1,11.97,8.1l-1.2-1.169a13.317,13.317,0,0,0,2.4-3.355L15.127,0,28.1,12.964l-1.555,3.215a14.848,14.848,0,0,1-2.817,3.916,15.062,15.062,0,0,1-4.711,3.191l-3.343,1.531a12.788,12.788,0,0,0-4.138,2.712A13.336,13.336,0,0,0,9.036,31L7.154,34.683Z" transform="translate(19.943 13.722)" fill="#fff"/>
      <path id="Path_29" data-name="Path 29" d="M12.987,34.718,0,21.719l1.461-3.448A12.821,12.821,0,0,1,4.3,14.32a15.062,15.062,0,0,1,4.711-3.191L12.3,9.714a13.238,13.238,0,0,0,4.185-2.829,15.076,15.076,0,0,0,2.256-3.074l.292-.468L20.983,0,33.935,12.964l-1.566,3.074a15.071,15.071,0,0,1-7.528,7.1l-3.285,1.414a13.324,13.324,0,0,0-6.687,6.3l-1.882,3.869Zm-11-13.385L12.508,31.854l.853-1.742A14.848,14.848,0,0,1,16.179,26.2h0a15.062,15.062,0,0,1,4.711-3.191l3.285-1.414a13.324,13.324,0,0,0,6.687-6.3l1.017-2L21.322,2.735,20.153,4.7a16.439,16.439,0,0,1-2.49,3.378,15.062,15.062,0,0,1-4.711,3.191L9.667,12.683a13.371,13.371,0,0,0-4.185,2.829,11.294,11.294,0,0,0-2.49,3.46L1.987,21.333Z" transform="translate(4.045 13.722)" fill="#fff"/>
      <path id="Path_34" data-name="Path 34" d="M4.2,8.393a4.2,4.2,0,1,1,4.2-4.2,4.2,4.2,0,0,1-4.2,4.2Zm0-6.71A2.525,2.525,0,1,0,6.71,4.208,2.529,2.529,0,0,0,4.2,1.683Z" transform="translate(16.798 26.861)" fill="#fff"/>
    </g>
  </g>
</svg>
