<svg xmlns="http://www.w3.org/2000/svg" width="18.458" height="14.991" viewBox="0 0 18.458 14.991">
  <path id="Icon_awesome-twitter" data-name="Icon awesome-twitter" d="M16.561,7.117c.012.164.012.328.012.492A10.69,10.69,0,0,1,5.809,18.372,10.69,10.69,0,0,1,0,16.674a7.826,7.826,0,0,0,.914.047A7.576,7.576,0,0,0,5.61,15.1a3.79,3.79,0,0,1-3.537-2.624,4.771,4.771,0,0,0,.714.059,4,4,0,0,0,1-.129A3.783,3.783,0,0,1,.75,8.7V8.651a3.81,3.81,0,0,0,1.71.48,3.789,3.789,0,0,1-1.171-5.06,10.753,10.753,0,0,0,7.8,3.959,4.271,4.271,0,0,1-.094-.867,3.787,3.787,0,0,1,6.547-2.588,7.448,7.448,0,0,0,2.4-.914A3.773,3.773,0,0,1,16.28,5.747a7.584,7.584,0,0,0,2.178-.586,8.132,8.132,0,0,1-1.9,1.956Z" transform="translate(0 -3.381)" fill="#88bc47"/>
</svg>
