<svg xmlns="http://www.w3.org/2000/svg" width="16.151" height="16.151" viewBox="0 0 16.151 16.151">
  <path id="Icon_awesome-linkedin-in" data-name="Icon awesome-linkedin-in" d="M3.615,16.151H.267V5.368H3.615ZM1.939,3.9A1.948,1.948,0,1,1,3.878,1.94,1.956,1.956,0,0,1,1.939,3.9ZM16.147,16.151H12.806V10.9c0-1.251-.025-2.855-1.741-2.855-1.741,0-2.008,1.359-2.008,2.765v5.339H5.713V5.368H8.924V6.839h.047A3.518,3.518,0,0,1,12.139,5.1c3.389,0,4.012,2.232,4.012,5.13v5.923Z" transform="translate(0 0)" fill="#88bc47"/>
</svg>
