<svg xmlns="http://www.w3.org/2000/svg" width="16.16" height="16.156" viewBox="0 0 16.16 16.156">
  <path id="Icon_awesome-instagram" data-name="Icon awesome-instagram" d="M8.076,6.174a4.142,4.142,0,1,0,4.142,4.142A4.136,4.136,0,0,0,8.076,6.174Zm0,6.835a2.693,2.693,0,1,1,2.693-2.693A2.7,2.7,0,0,1,8.076,13.009Zm5.278-7a.966.966,0,1,1-.966-.966A.964.964,0,0,1,13.354,6Zm2.743.981A4.781,4.781,0,0,0,14.793,3.6a4.813,4.813,0,0,0-3.385-1.305c-1.334-.076-5.332-.076-6.666,0A4.806,4.806,0,0,0,1.357,3.6,4.8,4.8,0,0,0,.052,6.981c-.076,1.334-.076,5.332,0,6.666a4.781,4.781,0,0,0,1.305,3.385,4.819,4.819,0,0,0,3.385,1.305c1.334.076,5.332.076,6.666,0a4.781,4.781,0,0,0,3.385-1.305A4.813,4.813,0,0,0,16.1,13.647c.076-1.334.076-5.328,0-6.662Zm-1.723,8.093a2.726,2.726,0,0,1-1.536,1.536c-1.064.422-3.587.324-4.762.324s-3.7.094-4.762-.324a2.726,2.726,0,0,1-1.536-1.536c-.422-1.064-.324-3.587-.324-4.762s-.094-3.7.324-4.762A2.726,2.726,0,0,1,3.314,4.018C4.378,3.6,6.9,3.693,8.076,3.693s3.7-.094,4.762.324a2.726,2.726,0,0,1,1.536,1.536c.422,1.064.324,3.587.324,4.762S14.8,14.018,14.375,15.078Z" transform="translate(0.005 -2.238)" fill="#88bc47"/>
</svg>
