<svg xmlns="http://www.w3.org/2000/svg" xmlns:xlink="http://www.w3.org/1999/xlink" width="49.296" height="49.295" viewBox="0 0 49.296 49.295">
  <defs>
    <clipPath id="clip-path">
      <rect id="Rectangle_50" data-name="Rectangle 50" width="49.296" height="49.295" fill="#fff" stroke="#707070" stroke-width="1"/>
    </clipPath>
  </defs>
  <g id="Mask_Group_9" data-name="Mask Group 9" clip-path="url(#clip-path)">
    <g id="Group_182" data-name="Group 182" transform="translate(4.225 10.891)">
      <path id="Path_61" data-name="Path 61" d="M1.674,5.858H0V1.674A1.672,1.672,0,0,1,1.674,0H14.238V1.674H1.674V5.858Z" transform="translate(15.923 15.923)" fill="#fff"/>
      <path id="Path_49" data-name="Path 49" d="M8.38,34.346h-4.2A4.2,4.2,0,0,1,0,30.15V4.184A4.186,4.186,0,0,1,4.184,0H31V1.674H4.184A2.514,2.514,0,0,0,1.674,4.184V30.161a2.514,2.514,0,0,0,2.511,2.511H20.31v1.674Z" transform="translate(0 0.011)" fill="#fff"/>
      <path id="Path_50" data-name="Path 50" d="M5.858,5.021H1.674A1.672,1.672,0,0,1,0,3.348V.837H1.674V3.348H5.858V0H25.007V1.674H7.532V3.348A1.679,1.679,0,0,1,5.858,5.021Z" transform="translate(4.196 32.683)" fill="#fff"/>
      <path id="Path_51" data-name="Path 51" d="M5.858,5.021H1.674A1.672,1.672,0,0,1,0,3.348V.837H1.674V3.348H5.858V0H8.369V1.674H7.532V3.348A1.679,1.679,0,0,1,5.858,5.021Z" transform="translate(22.63 32.683)" fill="#fff"/>
      <path id="Path_53" data-name="Path 53" d="M1.685,15.288H0V1.674A1.672,1.672,0,0,1,1.674,0H24.4V1.674H1.685V15.288Z" transform="translate(3.348 3.359)" fill="#fff"/>
      <path id="Path_55" data-name="Path 55" d="M25.966,27.639H1.674A1.672,1.672,0,0,1,0,25.966V8.369H1.674v17.6H25.966V1.674H23.455V0h2.511A1.672,1.672,0,0,1,27.64,1.674V25.966a1.672,1.672,0,0,1-1.674,1.674Z" transform="translate(3.359 3.359)" fill="#fff"/>
      <path id="Path_56" data-name="Path 56" d="M3.348,1.674H0V0H3.348Z" transform="translate(36.868 14.249)" fill="#fff"/>
      <path id="Path_57" data-name="Path 57" d="M2.511,34.357H1.674A1.672,1.672,0,0,1,0,32.683V1.674A1.672,1.672,0,0,1,1.674,0h.837A2.514,2.514,0,0,1,5.021,2.511V17.6H3.348V2.511a.843.843,0,0,0-.837-.837H1.674v31h.837a.843.843,0,0,0,.837-.837V19.271H7.532v1.674H5.021V31.835a2.524,2.524,0,0,1-2.511,2.522Z" transform="translate(32.684 0)" fill="#fff"/>
      <path id="Path_58" data-name="Path 58" d="M1.674,11.727H0V0H1.674Z" transform="translate(39.379 11.727)" fill="#fff"/>
      <path id="Path_62" data-name="Path 62" d="M1.674,9.217H0V1.674A1.672,1.672,0,0,1,1.674,0H15.912a1.672,1.672,0,0,1,1.674,1.674V4.184H15.912V1.674H1.674V9.217Z" transform="translate(6.706 12.564)" fill="#fff"/>
      <path id="Path_63" data-name="Path 63" d="M1.674,4.2H0V0H1.674Z" transform="translate(12.565 13.401)" fill="#fff"/>
      <path id="Path_64" data-name="Path 64" d="M1.674,8.38H0V0H1.674Z" transform="translate(10.054 21.781)" fill="#fff"/>
      <path id="Path_65" data-name="Path 65" d="M1.674,3.348H0V0H1.674Z" transform="translate(21.782 24.303)" fill="#fff"/>
      <path id="Path_66" data-name="Path 66" d="M1.685,7.543H0V0H1.685Z" transform="translate(24.292 16.76)" fill="#fff"/>
      <path id="Path_59" data-name="Path 59" d="M15.086,9.217H13.413V1.674H0V0H13.4a1.672,1.672,0,0,1,1.674,1.674V9.217Z" transform="translate(4.184 20.944)" fill="#fff"/>
      <path id="Path_60" data-name="Path 60" d="M11.728,1.685H0V0H11.728Z" transform="translate(18.434 23.455)" fill="#fff"/>
    </g>
  </g>
</svg>
