<svg xmlns="http://www.w3.org/2000/svg" xmlns:xlink="http://www.w3.org/1999/xlink" width="49.296" height="49.295" viewBox="0 0 49.296 49.295">
  <defs>
    <clipPath id="clip-path">
      <rect id="Rectangle_49" data-name="Rectangle 49" width="49.296" height="49.295" fill="#fff" stroke="#707070" stroke-width="1"/>
    </clipPath>
  </defs>
  <g id="Mask_Group_10" data-name="Mask Group 10" clip-path="url(#clip-path)">
    <g id="Group_183" data-name="Group 183" transform="translate(5.821 9.638)">
      <path id="Path_70" data-name="Path 70" d="M1.136,5.257,0,4.121,4.121,0,5.257,1.136Z" transform="translate(10.19 16.604)" fill="#fff"/>
      <path id="Path_71" data-name="Path 71" d="M.708,5.127.026,1.893A1.588,1.588,0,0,1,1.595,0H4.8A1.595,1.595,0,0,1,6.376,1.861L5.684,5.116,4.126,4.781l.681-3.223L1.595,1.59l.681,3.2L.708,5.127Z" transform="translate(7.221 7.215)" fill="#fff"/>
      <path id="Path_72" data-name="Path 72" d="M1.98,3.786,0,.909,1.32,0,3.3,2.877Z" transform="translate(1.395 11.109)" fill="#fff"/>
      <path id="Path_73" data-name="Path 73" d="M5.614,1.6H0V0H5.614Z" transform="translate(21.634 8.805)" fill="#fff"/>
      <path id="Path_74" data-name="Path 74" d="M16.009,32.84H4.792A4.786,4.786,0,0,1,0,27.962H1.6a3.164,3.164,0,0,0,3.191,3.278H16.009a3.208,3.208,0,0,0,3.2-3.2V18.53a8.117,8.117,0,0,0-1.958-5.29l-1.276-1.5a3.193,3.193,0,0,1-.53-3.288l2.153-6.8L14.43,1.612a6.075,6.075,0,0,0-3.808,1.341A7.375,7.375,0,0,1,6.4,4.824a4.284,4.284,0,0,1-1.731-.519,5.992,5.992,0,0,0-.649-.27L5.733,9.962l-.487.325A8.545,8.545,0,0,0,2.066,14.2l-.53,1.363L.043,14.992l.53-1.374A10.027,10.027,0,0,1,3.873,9.3L2.445,4.424A1.676,1.676,0,0,1,2.758,2.91a1.508,1.508,0,0,1,1.309-.5,4.515,4.515,0,0,1,1.255.422A3.7,3.7,0,0,0,6.393,3.2,5.915,5.915,0,0,0,9.606,1.687,7.718,7.718,0,0,1,14.419,0H17.6a1.6,1.6,0,0,1,1.5,2.153L16.94,8.989a1.617,1.617,0,0,0,.249,1.709l1.276,1.5a9.73,9.73,0,0,1,2.347,6.339v9.508a4.8,4.8,0,0,1-4.8,4.792Z" transform="translate(16.842 0)" fill="#fff"/>
      <path id="Path_89" data-name="Path 89" d="M7.475,8.751,5.463,5.874A2.794,2.794,0,0,0,7.323,3.115C7.323,1.179,5.9,0,3.6,0H0V8.751H1.623V6.2H3.6c.108,0,.227,0,.335-.011L5.722,8.751ZM5.69,3.115c0,1.1-.736,1.752-2.163,1.752h-1.9V1.385h1.9c1.417-.011,2.163.627,2.163,1.731Z" transform="translate(24.231 16.691)" fill="#fff"/>
      <path id="Path_67" data-name="Path 67" d="M10.417,20.834A10.417,10.417,0,1,1,20.834,10.417,10.429,10.429,0,0,1,10.417,20.834Zm0-19.222a8.816,8.816,0,1,0,8.816,8.816,8.824,8.824,0,0,0-8.816-8.816Z" transform="translate(0 11.206)" fill="#fff"/>
    </g>
  </g>
</svg>
