<svg xmlns="http://www.w3.org/2000/svg" xmlns:xlink="http://www.w3.org/1999/xlink" width="41.283" height="41.283" viewBox="0 0 41.283 41.283">
  <defs>
    <clipPath id="clip-path">
      <rect id="Rectangle_46" data-name="Rectangle 46" width="41.283" height="41.283" transform="translate(0 0)" fill="#fff" stroke="#707070" stroke-width="1"/>
    </clipPath>
  </defs>
  <g id="Mask_Group_6" data-name="Mask Group 6" clip-path="url(#clip-path)">
    <g id="Group_179" data-name="Group 179" transform="translate(0 0)">
      <path id="Path_23" data-name="Path 23" d="M21.149,19.583h-1.41V14.659H18.33a1.4,1.4,0,0,1-1.057-2.33L22.2,6.69a1.425,1.425,0,0,1,2.1,0l4.934,5.639a1.4,1.4,0,0,1-1.057,2.33h-1.41v1.41h-1.41V13.249h2.81L23.225,7.62,18.31,13.259l2.81-.01v6.334Z" transform="translate(-4.272 -5.515)" fill="#89bc47"/>
      <path id="Path_24" data-name="Path 24" d="M8.219,26.028H6.81V20.4H5.41A1.4,1.4,0,0,1,4,19a1.422,1.422,0,0,1,.352-.92L9.277,12.44a1.425,1.425,0,0,1,2.1,0l4.934,5.639a1.4,1.4,0,0,1-1.057,2.33h-1.41v3.515h-1.41V19h2.81L10.3,13.37,5.39,19.009,8.2,19v7.029Z" transform="translate(-4 -5.636)" fill="#89bc47"/>
      <path id="Path_25" data-name="Path 25" d="M8.28,29.18H6.87V27.77H8.28Z" transform="translate(-4.06 -5.968)" fill="#002b60"/>
      <path id="Path_26" data-name="Path 26" d="M8.28,32.05H6.87V30.64H8.28Z" transform="translate(-4.06 -6.029)" fill="#002b60"/>
      <path id="Path_27" data-name="Path 27" d="M41.194,16.1h-1.41V12.585H41.9L38.384,9.07,34.87,12.585h2.115V16.1h-1.41v-2.1h-.7a1.41,1.41,0,0,1-1.41-1.41,1.433,1.433,0,0,1,.411-1l3.515-3.515a1.443,1.443,0,0,1,1.987,0l3.515,3.515a1.412,1.412,0,0,1-1,2.408h-.7v2.1Z" transform="translate(-4.619 -5.546)" fill="#89bc47"/>
      <path id="Path_28" data-name="Path 28" d="M27.051,47.016,21.06,41.162l.979-1.008,4.631,4.523.7-1.38a12.713,12.713,0,0,1,2.359-3.27,11.879,11.879,0,0,1,3.887-2.555l2.8-1.282A11.2,11.2,0,0,0,42.03,30.9l.861-1.782-8.83-8.83-.734,1.322a12.544,12.544,0,0,1-2.242,3.142l-1.008-.979a11.153,11.153,0,0,0,2.007-2.81l1.645-3L44.594,28.827l-1.3,2.692a12.435,12.435,0,0,1-2.359,3.28,12.614,12.614,0,0,1-3.945,2.673l-2.8,1.282a10.71,10.71,0,0,0-3.466,2.271,11.169,11.169,0,0,0-2.1,2.908l-1.576,3.084Z" transform="translate(-4.359 -5.762)" fill="#002b60"/>
      <path id="Path_29" data-name="Path 29" d="M18.336,47.045,7.46,36.159l1.224-2.888a10.737,10.737,0,0,1,2.379-3.309,12.614,12.614,0,0,1,3.945-2.673l2.751-1.185a11.087,11.087,0,0,0,3.5-2.369,12.626,12.626,0,0,0,1.889-2.575l.245-.392,1.635-2.8L35.88,28.827,34.568,31.4a12.621,12.621,0,0,1-6.3,5.942l-2.751,1.185a11.158,11.158,0,0,0-5.6,5.277l-1.576,3.24ZM9.124,35.836l8.811,8.811.715-1.459a12.435,12.435,0,0,1,2.359-3.28h0a12.614,12.614,0,0,1,3.945-2.673l2.751-1.185a11.158,11.158,0,0,0,5.6-5.277l.852-1.674-8.84-8.84-.979,1.645a13.767,13.767,0,0,1-2.085,2.829,12.614,12.614,0,0,1-3.945,2.673l-2.751,1.185a11.2,11.2,0,0,0-3.5,2.369,9.459,9.459,0,0,0-2.085,2.9l-.842,1.978Z" transform="translate(-4.073 -5.762)" fill="#002b60"/>
      <path id="Path_30" data-name="Path 30" d="M26.96,28.49H25.55v1.4h1.41Z" transform="translate(-4.453 -5.983)" fill="#002b60"/>
      <path id="Path_31" data-name="Path 31" d="M29.11,26.33h-1.4v1.41h1.4Z" transform="translate(-4.499 -5.938)" fill="#002b60"/>
      <path id="Path_32" data-name="Path 32" d="M16.18,37.83h-1.4v1.4h1.4Z" transform="translate(-4.227 -6.18)" fill="#002b60"/>
      <path id="Path_33" data-name="Path 33" d="M18.34,35.67H16.93v1.41h1.41Z" transform="translate(-4.272 -6.134)" fill="#002b60"/>
      <path id="Path_34" data-name="Path 34" d="M21.885,36.239A3.515,3.515,0,1,1,25.4,32.725a3.518,3.518,0,0,1-3.515,3.515Zm0-5.619a2.115,2.115,0,1,0,2.1,2.115,2.118,2.118,0,0,0-2.1-2.115Z" transform="translate(-4.302 -5.999)" fill="#89bc47"/>
      <path id="Path_35" data-name="Path 35" d="M14.03,8.37H12.62V9.78h1.41Z" transform="translate(-4.181 -5.56)" fill="#002b60"/>
      <path id="Path_36" data-name="Path 36" d="M14.03,5.5H12.62V6.91h1.41Z" transform="translate(-4.181 -5.5)" fill="#002b60"/>
      <path id="Path_37" data-name="Path 37" d="M45.64,22.02H44.23v1.41h1.41Z" transform="translate(-4.846 -5.847)" fill="#002b60"/>
      <path id="Path_38" data-name="Path 38" d="M45.64,19.15H44.23v1.41h1.41Z" transform="translate(-4.846 -5.787)" fill="#002b60"/>
      <path id="Path_39" data-name="Path 39" d="M45.64,16.28H44.23v1.4h1.41Z" transform="translate(-4.846 -5.727)" fill="#002b60"/>
      <path id="Path_40" data-name="Path 40" d="M41.33,17.71H39.92v1.41h1.41Z" transform="translate(-4.755 -5.757)" fill="#002b60"/>
      <path id="Path_41" data-name="Path 41" d="M41.33,44.29H39.92V45.7h1.41Z" transform="translate(-4.755 -6.316)" fill="#002b60"/>
      <path id="Path_42" data-name="Path 42" d="M41.33,41.42H39.92v1.41h1.41Z" transform="translate(-4.755 -6.255)" fill="#002b60"/>
      <path id="Path_43" data-name="Path 43" d="M11.15,45.01H9.75v1.41h1.4Z" transform="translate(-4.121 -6.331)" fill="#002b60"/>
      <path id="Path_44" data-name="Path 44" d="M11.15,42.14H9.75v1.4h1.4Z" transform="translate(-4.121 -6.27)" fill="#002b60"/>
      <path id="Path_45" data-name="Path 45" d="M21.21,22.71H19.8V21.3h1.41Z" transform="translate(-4.332 -5.832)" fill="#002b60"/>
    </g>
  </g>
</svg>
