<svg xmlns="http://www.w3.org/2000/svg" width="45.15" height="38" viewBox="0 0 45.15 38">
  <g id="Rewards_icon-01" transform="translate(-1.725 -5.9)">
    <path id="Path_1645" data-name="Path 1645" d="M28.7,33.9a3.022,3.022,0,0,1-1.6-.5L25.2,32a1.535,1.535,0,0,0-1.6,0l-1.9,1.4a2.855,2.855,0,0,1-3.3,0,2.659,2.659,0,0,1-1-3.1l.7-2.3a1.24,1.24,0,0,0-.5-1.5l-2-1.5a2.764,2.764,0,0,1,1.6-5h2.4a1.424,1.424,0,0,0,1.3-.9l.7-2.3a2.669,2.669,0,0,1,2.6-1.9,2.7,2.7,0,0,1,2.6,1.9l.7,2.3a1.291,1.291,0,0,0,1.3.9h2.4a2.7,2.7,0,0,1,2.6,1.9,2.659,2.659,0,0,1-1,3.1l-1.9,1.4a1.282,1.282,0,0,0-.5,1.5l.7,2.3a2.659,2.659,0,0,1-1,3.1A1.678,1.678,0,0,1,28.7,33.9Zm-4.4-3.7a3.022,3.022,0,0,1,1.6.5l1.9,1.4a1.342,1.342,0,0,0,1.6,0,1.32,1.32,0,0,0,.5-1.5l-.7-2.3a2.659,2.659,0,0,1,1-3.1l1.9-1.4a1.368,1.368,0,0,0,.5-1.5,1.24,1.24,0,0,0-1.3-.9H29a2.7,2.7,0,0,1-2.6-1.9l-.7-2.3a1.389,1.389,0,0,0-2.6,0l-.7,2.3a2.669,2.669,0,0,1-2.6,1.9H17.4a1.353,1.353,0,0,0-1.3.9,1.325,1.325,0,0,0,.5,1.5l1.9,1.4a2.7,2.7,0,0,1,1,3.1l-.7,2.3a1.32,1.32,0,0,0,.5,1.5,1.342,1.342,0,0,0,1.6,0l1.9-1.4A2.456,2.456,0,0,1,24.3,30.2Z" fill="#002b60"/>
    <path id="Path_1646" data-name="Path 1646" d="M36.9,43.8a.367.367,0,0,1-.3-.1.74.74,0,0,1-.4-.9,40.815,40.815,0,0,0,2.3-25.9.728.728,0,0,1,1.4-.4,42.139,42.139,0,0,1-2.4,26.8C37.4,43.7,37.2,43.8,36.9,43.8Z" fill="#fff"/>
    <path id="Path_1647" data-name="Path 1647" d="M39.3,17.5h0a2.917,2.917,0,0,1-2.4-1.3c-1.3-2-.4-5.3-.3-5.7A1,1,0,0,1,37,10a.614.614,0,0,1,.6.1c4.7,3.2,2.2,7,2.2,7.1C39.8,17.4,39.6,17.5,39.3,17.5ZM37.8,12a5.2,5.2,0,0,0,.3,3.5,1.555,1.555,0,0,0,.8.6A3.354,3.354,0,0,0,37.8,12Z" fill="#fff"/>
    <path id="Path_1648" data-name="Path 1648" d="M40.2,22.3a.684.684,0,0,1-.7-.7,5.968,5.968,0,0,1,4.3-5.9.661.661,0,0,1,.6.1.55.55,0,0,1,.3.5c.1,5.8-4.4,6-4.5,6Zm3-4.8a4.578,4.578,0,0,0-2.3,3.2A3.285,3.285,0,0,0,43.2,17.5Z" fill="#fff"/>
    <path id="Path_1649" data-name="Path 1649" d="M38.3,22.8a1.268,1.268,0,0,1-.6-.1c-1.2-.2-2.2-1.2-3-2.7a.638.638,0,0,1,0-.6.781.781,0,0,1,.4-.4c1.2-.6,3.8-.8,5.5,2.2a.651.651,0,0,1-.2.9A4.192,4.192,0,0,1,38.3,22.8Zm-1.9-2.7A2.545,2.545,0,0,0,38,21.3a2.134,2.134,0,0,0,.8,0A2.466,2.466,0,0,0,36.4,20.1Z" fill="#fff"/>
    <path id="Path_1650" data-name="Path 1650" d="M38.9,27.7a1.268,1.268,0,0,1-.6-.1c-1.2-.2-2.2-1.2-3-2.7a.638.638,0,0,1,0-.6.781.781,0,0,1,.4-.4c1.2-.6,3.8-.8,5.5,2.2a.651.651,0,0,1-.2.9A4.053,4.053,0,0,1,38.9,27.7ZM37,25a2.545,2.545,0,0,0,1.6,1.2,2.134,2.134,0,0,0,.8,0A2.768,2.768,0,0,0,37,25Z" fill="#fff"/>
    <path id="Path_1651" data-name="Path 1651" d="M42,27.9a4.647,4.647,0,0,1-1.9-.4.781.781,0,0,1-.4-.4c-.1-.2,0-.4,0-.6a6.133,6.133,0,0,1,6.6-3.2,1,1,0,0,1,.5.4.638.638,0,0,1,0,.6C45.4,27.2,43.4,27.9,42,27.9Zm-.5-1.5A3.487,3.487,0,0,0,45,24.6,4.786,4.786,0,0,0,41.5,26.4Z" fill="#fff"/>
    <path id="Path_1652" data-name="Path 1652" d="M38.5,33a1.952,1.952,0,0,1-.7-.1,4.425,4.425,0,0,1-2.9-2.8.638.638,0,0,1,0-.6.781.781,0,0,1,.4-.4c1.2-.5,3.8-.7,5.4,2.4a.651.651,0,0,1-.2.9A4.527,4.527,0,0,1,38.5,33Zm-1.9-2.8a2.921,2.921,0,0,0,1.5,1.3,2.134,2.134,0,0,0,.8,0A2.661,2.661,0,0,0,36.6,30.2Z" fill="#fff"/>
    <path id="Path_1653" data-name="Path 1653" d="M41.7,33.3a5.683,5.683,0,0,1-2.1-.4.781.781,0,0,1-.4-.4.661.661,0,0,1,.1-.6A5.941,5.941,0,0,1,46,29a1,1,0,0,1,.5.4.638.638,0,0,1,0,.6C45,32.7,43.1,33.3,41.7,33.3Zm-.6-1.5a3.455,3.455,0,0,0,3.6-1.6A4.35,4.35,0,0,0,41.1,31.8Z" fill="#fff"/>
    <path id="Path_1654" data-name="Path 1654" d="M37.4,38.4a1.978,1.978,0,0,1-1-.2,5.016,5.016,0,0,1-2.7-3.1.638.638,0,0,1,0-.6.781.781,0,0,1,.4-.4c1.2-.4,3.9-.4,5.1,2.9a.806.806,0,0,1-.3.9C39.1,37.9,38.4,38.4,37.4,38.4Zm-1.9-3a2.689,2.689,0,0,0,1.4,1.4,2.485,2.485,0,0,0,.8.1A2.581,2.581,0,0,0,35.5,35.4Z" fill="#fff"/>
    <path id="Path_1655" data-name="Path 1655" d="M40.7,38.9a5.079,5.079,0,0,1-2.4-.6.55.55,0,0,1-.3-.5.749.749,0,0,1,.1-.5A5.967,5.967,0,0,1,45,35c.2.1.4.2.4.4a.661.661,0,0,1-.1.6C43.8,38.3,42.1,38.9,40.7,38.9Zm-.9-1.5a3.558,3.558,0,0,0,3.7-1.3A4.437,4.437,0,0,0,39.8,37.4Z" fill="#fff"/>
    <path id="Path_1656" data-name="Path 1656" d="M28.7,33.9a3.022,3.022,0,0,1-1.6-.5L25.2,32a1.535,1.535,0,0,0-1.6,0l-1.9,1.4a2.855,2.855,0,0,1-3.3,0,2.659,2.659,0,0,1-1-3.1l.7-2.3a1.24,1.24,0,0,0-.5-1.5l-2-1.5a2.764,2.764,0,0,1,1.6-5h2.4a1.424,1.424,0,0,0,1.3-.9l.7-2.3a2.669,2.669,0,0,1,2.6-1.9,2.7,2.7,0,0,1,2.6,1.9l.7,2.3a1.291,1.291,0,0,0,1.3.9h2.4a2.7,2.7,0,0,1,2.6,1.9,2.659,2.659,0,0,1-1,3.1l-1.9,1.4a1.282,1.282,0,0,0-.5,1.5l.7,2.3a2.659,2.659,0,0,1-1,3.1A1.678,1.678,0,0,1,28.7,33.9Zm-4.4-3.7a3.022,3.022,0,0,1,1.6.5l1.9,1.4a1.342,1.342,0,0,0,1.6,0,1.32,1.32,0,0,0,.5-1.5l-.7-2.3a2.659,2.659,0,0,1,1-3.1l1.9-1.4a1.368,1.368,0,0,0,.5-1.5,1.24,1.24,0,0,0-1.3-.9H29a2.7,2.7,0,0,1-2.6-1.9l-.7-2.3a1.389,1.389,0,0,0-2.6,0l-.7,2.3a2.669,2.669,0,0,1-2.6,1.9H17.4a1.353,1.353,0,0,0-1.3.9,1.325,1.325,0,0,0,.5,1.5l1.9,1.4a2.7,2.7,0,0,1,1,3.1l-.7,2.3a1.32,1.32,0,0,0,.5,1.5,1.342,1.342,0,0,0,1.6,0l1.9-1.4A2.456,2.456,0,0,1,24.3,30.2Z" fill="#fff"/>
    <path id="Path_1657" data-name="Path 1657" d="M11.7,43.8a1.012,1.012,0,0,1-.7-.4A42.611,42.611,0,0,1,8.7,16.7a.728.728,0,1,1,1.4.4A40.908,40.908,0,0,0,12.4,43a.608.608,0,0,1-.4.9A.367.367,0,0,0,11.7,43.8Z" fill="#fff"/>
    <path id="Path_1658" data-name="Path 1658" d="M9.3,17.5a.713.713,0,0,1-.6-.3s-2.5-3.9,2.2-7.1a.617.617,0,0,1,1,.4c.1.4,1.1,3.8-.3,5.7a2.423,2.423,0,0,1-2.3,1.3ZM10.8,12a3.376,3.376,0,0,0-1.1,4,1.242,1.242,0,0,0,.8-.6C11.1,14.6,11,13.1,10.8,12Z" fill="#fff"/>
    <path id="Path_1659" data-name="Path 1659" d="M8.4,22.3c-.1,0-4.6-.3-4.5-5.9a.55.55,0,0,1,.3-.5.661.661,0,0,1,.6-.1,5.863,5.863,0,0,1,4.3,5.9.764.764,0,0,1-.2.5A.749.749,0,0,1,8.4,22.3Zm-3-4.8a3.529,3.529,0,0,0,2.3,3.2A4.578,4.578,0,0,0,5.4,17.5Z" fill="#fff"/>
    <path id="Path_1660" data-name="Path 1660" d="M10.3,22.8a3.255,3.255,0,0,1-2-.7.765.765,0,0,1-.2-.9c1.7-3,4.3-2.8,5.5-2.2a.781.781,0,0,1,.4.4c.1.2,0,.4,0,.6a4.538,4.538,0,0,1-3,2.7A1.952,1.952,0,0,1,10.3,22.8Zm-.5-1.5a1.1,1.1,0,0,0,.8,0,2.82,2.82,0,0,0,1.6-1.2A2.54,2.54,0,0,0,9.8,21.3Z" fill="#fff"/>
    <path id="Path_1661" data-name="Path 1661" d="M9.7,27.7a3.255,3.255,0,0,1-2-.7.765.765,0,0,1-.2-.9c1.7-3,4.3-2.8,5.5-2.2a.781.781,0,0,1,.4.4c.1.2,0,.4,0,.6a4.538,4.538,0,0,1-3,2.7A1.952,1.952,0,0,1,9.7,27.7Zm-.5-1.5a1.1,1.1,0,0,0,.8,0A2.82,2.82,0,0,0,11.6,25,2.87,2.87,0,0,0,9.2,26.2Z" fill="#fff"/>
    <path id="Path_1662" data-name="Path 1662" d="M6.6,27.9c-1.4,0-3.4-.6-4.8-3.5a.638.638,0,0,1,0-.6,1,1,0,0,1,.5-.4,5.857,5.857,0,0,1,6.6,3.2.637.637,0,0,1,0,.6.781.781,0,0,1-.4.4A13.836,13.836,0,0,1,6.6,27.9Zm-3-3.2a3.487,3.487,0,0,0,3.5,1.8A4.172,4.172,0,0,0,3.6,24.7Z" fill="#fff"/>
    <path id="Path_1663" data-name="Path 1663" d="M10.1,33a3.9,3.9,0,0,1-1.9-.6.959.959,0,0,1-.2-.9,4.141,4.141,0,0,1,5.4-2.4.781.781,0,0,1,.4.4.637.637,0,0,1,0,.6c-.8,1.6-1.8,2.6-2.9,2.8A2.485,2.485,0,0,1,10.1,33Zm-.4-1.5a1.1,1.1,0,0,0,.8,0A2.6,2.6,0,0,0,12,30.2,2.661,2.661,0,0,0,9.7,31.5Z" fill="#fff"/>
    <path id="Path_1664" data-name="Path 1664" d="M6.9,33.3c-1.4,0-3.3-.6-4.8-3.3a.638.638,0,0,1,0-.6.664.664,0,0,1,.5-.4,5.941,5.941,0,0,1,6.7,2.9,1.268,1.268,0,0,1,.1.6.781.781,0,0,1-.4.4A9.966,9.966,0,0,1,6.9,33.3ZM4,30.2a3.455,3.455,0,0,0,3.6,1.6A4.582,4.582,0,0,0,4,30.2Z" fill="#fff"/>
    <path id="Path_1665" data-name="Path 1665" d="M11.2,38.4A4.971,4.971,0,0,1,9.5,38a.759.759,0,0,1-.3-.9c1.3-3.2,3.9-3.3,5.1-2.9a.781.781,0,0,1,.4.4.637.637,0,0,1,0,.6A4.513,4.513,0,0,1,12,38.3C11.8,38.3,11.5,38.4,11.2,38.4Zm-.3-1.5a2.485,2.485,0,0,0,.8-.1,3.126,3.126,0,0,0,1.4-1.4A2.836,2.836,0,0,0,10.9,36.9Z" fill="#fff"/>
    <path id="Path_1666" data-name="Path 1666" d="M7.9,38.9c-1.4,0-3.1-.6-4.6-2.9a.661.661,0,0,1-.1-.6c.1-.2.2-.4.4-.4a5.8,5.8,0,0,1,6.9,2.3,1.087,1.087,0,0,1,.1.5.55.55,0,0,1-.3.5A5.079,5.079,0,0,1,7.9,38.9ZM5.1,36.1a3.558,3.558,0,0,0,3.7,1.3A4.265,4.265,0,0,0,5.1,36.1Z" fill="#fff"/>
    <path id="Path_1667" data-name="Path 1667" d="M24.2,12.1a.684.684,0,0,1-.7-.7V6.6a.7.7,0,0,1,1.4,0v4.8A.684.684,0,0,1,24.2,12.1Z" fill="#fff"/>
    <path id="Path_1668" data-name="Path 1668" d="M28.8,12.9h-.2a.608.608,0,0,1-.4-.9l1.6-4.5a.7.7,0,1,1,1.3.5l-1.6,4.5A1.27,1.27,0,0,1,28.8,12.9Z" fill="#fff"/>
    <path id="Path_1669" data-name="Path 1669" d="M30.6,42.3a.752.752,0,0,1-.7-.5l-1.6-4.5a.7.7,0,1,1,1.3-.5l1.6,4.5a.751.751,0,0,1-.4.9C30.7,42.3,30.7,42.3,30.6,42.3Z" fill="#fff"/>
    <path id="Path_1670" data-name="Path 1670" d="M24.4,43.4a.684.684,0,0,1-.7-.7V37.9a.7.7,0,1,1,1.4,0v4.8A.684.684,0,0,1,24.4,43.4Z" fill="#fff"/>
    <path id="Path_1671" data-name="Path 1671" d="M18.2,42.4H18a.608.608,0,0,1-.4-.9L19.2,37a.7.7,0,1,1,1.3.5L18.9,42A.842.842,0,0,1,18.2,42.4Z" fill="#fff"/>
    <path id="Path_1672" data-name="Path 1672" d="M19.7,12.9a.752.752,0,0,1-.7-.5L17.4,8a.7.7,0,1,1,1.3-.5L20.3,12a.751.751,0,0,1-.4.9Z" fill="#fff"/>
  </g>
</svg>
