<svg xmlns="http://www.w3.org/2000/svg" xmlns:xlink="http://www.w3.org/1999/xlink" width="41.283" height="41.283" viewBox="0 0 41.283 41.283">
  <defs>
    <clipPath id="clip-path">
      <rect id="Rectangle_47" data-name="Rectangle 47" width="41.283" height="41.283" transform="translate(0)" fill="#fff" stroke="#707070" stroke-width="1"/>
    </clipPath>
  </defs>
  <g id="Mask_Group_7" data-name="Mask Group 7" clip-path="url(#clip-path)">
    <g id="Group_180" data-name="Group 180" transform="translate(1.18 3.539)">
      <path id="Path_90" data-name="Path 90" d="M24.211,17.21c-1.118,0-10.951-.08-10.951-2.735s9.823-2.735,10.951-2.735,10.951.08,10.951,2.735S25.329,17.21,24.211,17.21Zm-9.493-2.735c.669.519,3.873,1.368,9.493,1.368s8.834-.848,9.493-1.368c-.669-.519-3.873-1.368-9.493-1.368s-8.834.848-9.493,1.368Z" transform="translate(-5.015 -9.504)" fill="#002b60"/>
      <path id="Path_91" data-name="Path 91" d="M24.211,21.328c-1.118,0-10.951-.08-10.951-2.735v-4.1h1.368v4.033c.439.509,3.674,1.437,9.573,1.437s9.144-.938,9.573-1.437V14.49h1.368v4.1c.02,2.655-9.813,2.735-10.931,2.735Z" transform="translate(-5.015 -9.509)" fill="#002b60"/>
      <path id="Path_92" data-name="Path 92" d="M24.206,43.9c-8.056,0-13.686-2.815-13.686-6.838V26.655a11.751,11.751,0,0,1,1.228-5.2l1.577-3.164,1.228.609-1.577,3.164a10.322,10.322,0,0,0-1.088,4.592V37.067c0,2.655,4.312,5.47,12.318,5.47s12.318-2.815,12.318-5.47V26.655a10.322,10.322,0,0,0-1.088-4.592L33.859,18.9l1.228-.609,1.577,3.164a11.751,11.751,0,0,1,1.228,5.2V37.067c0,4.023-5.63,6.838-13.686,6.838Z" transform="translate(-5.01 -9.515)" fill="#002b60"/>
      <path id="Path_93" data-name="Path 93" d="M22.231,30.866l-.26-1.348a2.8,2.8,0,0,0,2.246-2.705,2.735,2.735,0,0,0-5.47,0H17.38a4.1,4.1,0,1,1,4.851,4.053Z" transform="translate(-5.022 -9.523)" fill="#89bc47"/>
      <path id="Path_94" data-name="Path 94" d="M21.116,34.615l-.888-1.038a3.571,3.571,0,0,0,1.248-2.655,3.424,3.424,0,1,0-6.848,0,3.392,3.392,0,0,0,.928,2.346l-.988.938a4.79,4.79,0,1,1,8.275-3.284,4.967,4.967,0,0,1-1.727,3.693Z" transform="translate(-5.015 -9.529)" fill="#002b60"/>
      <path id="Path_95" data-name="Path 95" d="M26.905,32.193l-1.148-.749a30.773,30.773,0,0,1,4.622-5.69,21.629,21.629,0,0,1-3.2-1.467,12.81,12.81,0,0,0-1.6,2.705l-1.318-.359A13.815,13.815,0,0,1,26.416,23l.359-.509.539.3a18.332,18.332,0,0,0,4.6,1.986l1.338.309-1.048.888a27.683,27.683,0,0,0-5.3,6.219Z" transform="translate(-5.034 -9.523)" fill="#89bc47"/>
      <path id="Path_96" data-name="Path 96" d="M33.2,35.034l-.13-1.358a6.111,6.111,0,0,0,3.6-2.066l1.138.759A7.336,7.336,0,0,1,33.2,35.034Z" transform="translate(-5.05 -9.539)" fill="#002b60"/>
      <path id="Path_97" data-name="Path 97" d="M22.21,32.977h-.28l.02-1.368c4.951.07,8.784-1.677,11.3-5.191l.659-.918.509,1.018a9.626,9.626,0,0,0,3.174,3.154l-.729,1.158a12.145,12.145,0,0,1-3.114-2.825c-2.705,3.254-6.668,4.971-11.54,4.971Z" transform="translate(-5.03 -9.528)" fill="#002b60"/>
      <path id="Path_98" data-name="Path 98" d="M20.782,39.834a20.2,20.2,0,0,1-9.9-2.426l.689-1.178a18.947,18.947,0,0,0,9.214,2.236,48.162,48.162,0,0,0,6.978-.389l.21,1.348a47.979,47.979,0,0,1-7.187.409Z" transform="translate(-5.01 -9.547)" fill="#002b60"/>
      <path id="Path_99" data-name="Path 99" d="M26.712,36.461c-3.244,0-6.379-1.627-9.563-3.524a13.152,13.152,0,0,1-5.77,3.144l-.349-1.328c2.256-.6,4.662-1.986,5.371-3.095l.359-.559.569.339c3.414,2.046,6.479,3.723,9.643,3.634l.04,1.368a1.414,1.414,0,0,1-.3.02Z" transform="translate(-5.011 -9.538)" fill="#002b60"/>
      <path id="Path_100" data-name="Path 100" d="M43.415,37.1H40.68V35.73h2.735Z" transform="translate(-5.063 -9.546)" fill="#002b60"/>
      <path id="Path_101" data-name="Path 101" d="M43.415,28.188H40.68V26.82h2.735Z" transform="translate(-5.063 -9.531)" fill="#002b60"/>
      <path id="Path_102" data-name="Path 102" d="M7.775,37.1H5.04V35.73H7.775Z" transform="translate(-5 -9.546)" fill="#002b60"/>
      <path id="Path_103" data-name="Path 103" d="M7.775,28.188H5.04V26.82H7.775Z" transform="translate(-5 -9.531)" fill="#002b60"/>
      <path id="Path_104" data-name="Path 104" d="M10.446,12.634,8.28,10.468,9.248,9.5l2.166,2.166Z" transform="translate(-5.006 -9.5)" fill="#002b60"/>
      <path id="Path_105" data-name="Path 105" d="M8.554,20.1,5,18.288l.619-1.218,3.554,1.817Z" transform="translate(-5 -9.513)" fill="#002b60"/>
      <path id="Path_106" data-name="Path 106" d="M30.393,40.505a4.1,4.1,0,1,1,4.1-4.1,4.1,4.1,0,0,1-4.1,4.1Zm0-6.838A2.735,2.735,0,1,0,33.128,36.4a2.739,2.739,0,0,0-2.735-2.735Z" transform="translate(-5.038 -9.54)" fill="#89bc47"/>
      <path id="Path_107" data-name="Path 107" d="M39.9,20.1l-.619-1.218,3.554-1.817.619,1.218Z" transform="translate(-5.061 -9.513)" fill="#002b60"/>
      <path id="Path_108" data-name="Path 108" d="M38.008,12.634l-.968-.968L39.206,9.5l.968.968Z" transform="translate(-5.057 -9.5)" fill="#002b60"/>
    </g>
  </g>
</svg>
