<?xml version="1.0" encoding="utf-8"?>
<!-- Generator: Adobe Illustrator 28.0.0, SVG Export Plug-In . SVG Version: 6.00 Build 0)  -->
<svg version="1.1" id="Layer_1" xmlns="http://www.w3.org/2000/svg" xmlns:xlink="http://www.w3.org/1999/xlink" x="0px" y="0px"
	 viewBox="0 0 500 500" style="enable-background:new 0 0 500 500;" xml:space="preserve">
<style type="text/css">
	.st0{fill:none;stroke:#B4BBD2;stroke-width:1.7;stroke-miterlimit:10;}
	.st1{fill:none;stroke:#B4BBD2;stroke-width:1.7681;stroke-miterlimit:10;}
	.st2{fill:#B4BBD2;}
</style>
<g>
	<g id="_x3C_Radial_Repeat_x3E__00000031895633120421721930000009798480298342070203_">
		<g>
			<path class="st0" d="M250.82,457.32c-0.65,0.63-1.31,1.26-1.97,1.88c-7.26,6.9-17.08,11.13-27.88,11.14l59.7,0
				c22.35,0,40.48-18.12,40.48-40.48c0-7.73-2.17-14.95-5.92-21.09c-5.03-8.22-12.92-14.51-22.28-17.49l-3.46-1.02
				C282.93,416.15,269.32,439.22,250.82,457.32z"/>
			<path class="st0" d="M186.42,408.77c5.03-8.22,12.92-14.51,22.28-17.49c0,0,2.3-0.69,3.46-1.02c12.3-3.45,25.27-5.29,38.66-5.29
				c13.4,0,26.37,1.84,38.66,5.29c1.16,0.32,3.46,1.02,3.46,1.02c9.36,2.98,17.24,9.26,22.28,17.49l-28.81-49.81
				c-6.85-12.62-20.22-21.18-35.59-21.18c-15.19,0-28.42,8.37-35.35,20.74L186.42,408.77z"/>
			<path class="st0" d="M186.42,408.77c5.03-8.22,12.92-14.51,22.28-17.49c0,0,2.3-0.69,3.46-1.02
				c6.55,25.89,20.16,48.96,38.66,67.06c0,0-1.31,1.26-1.97,1.88c-7.26,6.9-17.08,11.13-27.88,11.14
				c-22.35,0-40.48-18.12-40.48-40.48C180.49,422.13,182.66,414.91,186.42,408.77z"/>
		</g>
	</g>
	<g id="_x3C_Radial_Repeat_x3E__00000068671880462115305170000001189297515539501725_">
		<g>
			<path class="st0" d="M147.44,429.71c-0.88,0.23-1.76,0.44-2.65,0.65c-9.74,2.35-20.36,1.1-29.71-4.3l51.7,29.85
				c19.36,11.18,44.12,4.54,55.29-14.82c3.86-6.69,5.6-14.03,5.42-21.23c-0.24-9.64-3.93-19.03-10.55-26.28l-2.49-2.61
				C195.84,410.12,172.51,423.29,147.44,429.71z"/>
			<path class="st0" d="M115.94,355.47c8.47-4.61,18.44-6.11,28.04-4.01c0,0,2.34,0.55,3.5,0.85c12.37,3.17,24.52,8.05,36.13,14.75
				c11.6,6.7,21.91,14.78,30.84,23.91c0.84,0.86,2.49,2.61,2.49,2.61c6.62,7.26,10.3,16.65,10.55,26.28l-0.04-57.54
				c0.37-14.35-6.92-28.46-20.23-36.14c-13.15-7.59-28.8-6.97-40.98,0.29L115.94,355.47z"/>
			<path class="st0" d="M115.94,355.47c8.47-4.61,18.44-6.11,28.04-4.01c0,0,2.34,0.55,3.5,0.85c-7.27,25.7-7.02,52.48-0.04,77.4
				c0,0-1.76,0.44-2.65,0.65c-9.74,2.35-20.36,1.1-29.71-4.3c-19.36-11.18-25.99-35.93-14.82-55.29
				C104.13,364.08,109.62,358.91,115.94,355.47z"/>
		</g>
	</g>
	<g id="_x3C_Radial_Repeat_x3E__00000163031055834459980530000013903659569979255217_">
		<g>
			<path class="st0" d="M71.71,354.12c-0.87-0.24-1.75-0.5-2.62-0.76c-9.61-2.84-18.18-9.22-23.58-18.58l29.85,51.7
				c11.18,19.36,35.93,25.99,55.29,14.82c6.69-3.86,11.86-9.35,15.31-15.68c4.61-8.47,6.11-18.44,4.01-28.04l-0.85-3.51
				C123.42,361.34,96.64,361.09,71.71,354.12z"/>
			<path class="st0" d="M81.56,274.07c9.64,0.25,19.03,3.93,26.29,10.55c0,0,1.75,1.65,2.61,2.49c9.13,8.93,17.21,19.24,23.91,30.84
				c6.7,11.6,11.59,23.75,14.75,36.13c0.3,1.17,0.85,3.51,0.85,3.51c2.1,9.59,0.6,19.57-4.01,28.04l28.73-49.85
				c7.5-12.24,8.23-28.11,0.55-41.41c-7.59-13.15-21.46-20.43-35.64-20.24L81.56,274.07z"/>
			<path class="st0" d="M81.56,274.07c9.64,0.24,19.03,3.93,26.29,10.55c0,0,1.75,1.65,2.61,2.49
				c-19.14,18.62-32.32,41.94-38.74,67.01c0,0-1.75-0.5-2.62-0.76c-9.61-2.84-18.18-9.22-23.58-18.58
				c-11.18-19.36-4.54-44.12,14.82-55.29C67.02,275.62,74.36,273.89,81.56,274.07z"/>
		</g>
	</g>
	<g id="_x3C_Radial_Repeat_x3E__00000060716430128257666610000006025322339520018840_">
		<g>
			<path class="st0" d="M43.93,250.79c-0.63-0.65-1.26-1.31-1.88-1.97c-6.9-7.26-11.13-17.08-11.13-27.88l0,59.7
				c0,22.35,18.12,40.48,40.48,40.48c7.73,0,14.95-2.17,21.09-5.92c8.22-5.03,14.51-12.92,17.49-22.28l1.02-3.46
				C85.1,282.9,62.02,269.29,43.93,250.79z"/>
			<path class="st0" d="M92.48,186.39c8.22,5.03,14.51,12.92,17.49,22.28c0,0,0.69,2.3,1.02,3.46c3.45,12.3,5.29,25.27,5.29,38.66
				s-1.84,26.37-5.29,38.66c-0.32,1.16-1.02,3.46-1.02,3.46c-2.98,9.36-9.26,17.24-17.49,22.28l49.81-28.81
				c12.62-6.85,21.18-20.22,21.18-35.59c0-15.19-8.37-28.42-20.74-35.35L92.48,186.39z"/>
			<path class="st0" d="M92.48,186.38c8.22,5.03,14.51,12.92,17.49,22.28c0,0,0.69,2.3,1.02,3.46
				c-25.89,6.55-48.96,20.16-67.06,38.66c0,0-1.26-1.31-1.88-1.97c-6.9-7.26-11.13-17.08-11.13-27.88
				c0-22.35,18.12-40.48,40.48-40.48C79.12,180.46,86.34,182.63,92.48,186.38z"/>
		</g>
	</g>
	<g id="_x3C_Radial_Repeat_x3E__00000130632479371343380320000011601079469223459508_">
		<g>
			<path class="st0" d="M71.53,147.41c-0.23-0.88-0.44-1.76-0.65-2.65c-2.35-9.74-1.1-20.36,4.3-29.71l-29.85,51.7
				c-11.18,19.36-4.54,44.12,14.82,55.29c6.69,3.86,14.03,5.6,21.23,5.42c9.64-0.24,19.03-3.93,26.28-10.55l2.61-2.49
				C91.13,195.8,77.95,172.48,71.53,147.41z"/>
			<path class="st0" d="M145.78,115.91c4.61,8.47,6.11,18.44,4.01,28.04c0,0-0.55,2.34-0.85,3.5c-3.17,12.37-8.05,24.52-14.75,36.13
				c-6.7,11.6-14.78,21.91-23.91,30.84c-0.86,0.84-2.61,2.49-2.61,2.49c-7.26,6.62-16.65,10.3-26.28,10.55l57.54-0.04
				c14.35,0.37,28.46-6.92,36.14-20.23c7.59-13.15,6.97-28.8-0.29-40.98L145.78,115.91z"/>
			<path class="st0" d="M145.78,115.91c4.61,8.47,6.11,18.44,4.01,28.04c0,0-0.55,2.34-0.85,3.5c-25.7-7.27-52.48-7.02-77.4-0.04
				c0,0-0.44-1.76-0.65-2.65c-2.35-9.74-1.1-20.36,4.3-29.71c11.18-19.36,35.93-25.99,55.29-14.82
				C137.17,104.1,142.34,109.58,145.78,115.91z"/>
		</g>
	</g>
	<g id="_x3C_Radial_Repeat_x3E__00000134212293985311160590000016675095563865518995_">
		<g>
			<path class="st0" d="M147.13,71.68c0.24-0.87,0.5-1.75,0.76-2.62c2.84-9.61,9.22-18.18,18.58-23.58l-51.7,29.85
				c-19.36,11.18-25.99,35.93-14.82,55.29c3.86,6.69,9.35,11.86,15.68,15.31c8.47,4.61,18.44,6.11,28.04,4.01l3.51-0.85
				C139.9,123.39,140.15,96.6,147.13,71.68z"/>
			<path class="st0" d="M227.18,81.53c-0.25,9.64-3.93,19.03-10.55,26.29c0,0-1.65,1.75-2.49,2.61
				c-8.93,9.13-19.24,17.21-30.84,23.91c-11.6,6.7-23.75,11.59-36.13,14.75c-1.17,0.3-3.51,0.85-3.51,0.85
				c-9.59,2.1-19.57,0.6-28.04-4.01l49.85,28.73c12.24,7.5,28.11,8.23,41.41,0.55c13.15-7.59,20.43-21.46,20.24-35.64L227.18,81.53z
				"/>
			<path class="st0" d="M227.18,81.53c-0.25,9.64-3.93,19.03-10.55,26.29c0,0-1.65,1.75-2.49,2.61
				c-18.62-19.14-41.94-32.32-67.01-38.74c0,0,0.5-1.75,0.76-2.62c2.84-9.61,9.22-18.18,18.58-23.58
				c19.36-11.18,44.12-4.54,55.29,14.82C225.62,66.99,227.36,74.33,227.18,81.53z"/>
		</g>
	</g>
	<g id="_x3C_Radial_Repeat_x3E__00000163049842952814514670000016904811802632978619_">
		<g>
			<path class="st0" d="M250.46,43.9c0.65-0.63,1.31-1.26,1.97-1.88c7.26-6.9,17.08-11.13,27.88-11.13l-59.7,0
				c-22.35,0-40.48,18.12-40.48,40.48c0,7.73,2.17,14.95,5.92,21.09c5.03,8.22,12.92,14.51,22.28,17.49l3.46,1.02
				C218.35,85.07,231.96,61.99,250.46,43.9z"/>
			<path class="st0" d="M314.86,92.45c-5.03,8.22-12.92,14.51-22.28,17.49c0,0-2.3,0.69-3.46,1.02c-12.3,3.45-25.27,5.29-38.66,5.29
				c-13.4,0-26.37-1.84-38.66-5.29c-1.16-0.32-3.46-1.02-3.46-1.02c-9.36-2.98-17.24-9.26-22.28-17.49l28.81,49.81
				c6.85,12.62,20.22,21.18,35.59,21.18c15.19,0,28.42-8.37,35.35-20.74L314.86,92.45z"/>
			<path class="st0" d="M314.86,92.45c-5.03,8.22-12.92,14.51-22.28,17.49c0,0-2.3,0.69-3.46,1.02
				c-6.55-25.89-20.16-48.96-38.66-67.06c0,0,1.31-1.26,1.97-1.88c7.26-6.9,17.08-11.13,27.88-11.13
				c22.35,0,40.48,18.12,40.48,40.48C320.78,79.08,318.62,86.31,314.86,92.45z"/>
		</g>
	</g>
	<g id="_x3C_Radial_Repeat_x3E__00000073711800092994827830000013993463462591764645_">
		<g>
			<path class="st0" d="M353.84,71.5c0.88-0.23,1.76-0.44,2.65-0.65c9.74-2.35,20.36-1.1,29.71,4.3L334.5,45.3
				c-19.36-11.18-44.12-4.54-55.29,14.82c-3.86,6.69-5.6,14.03-5.42,21.23c0.24,9.64,3.93,19.03,10.55,26.28l2.49,2.61
				C305.44,91.1,328.77,77.92,353.84,71.5z"/>
			<path class="st0" d="M385.33,145.75c-8.47,4.61-18.44,6.11-28.04,4.01c0,0-2.34-0.55-3.5-0.85
				c-12.37-3.17-24.52-8.05-36.13-14.75c-11.6-6.7-21.91-14.78-30.84-23.91c-0.84-0.86-2.49-2.61-2.49-2.61
				c-6.62-7.26-10.3-16.65-10.55-26.28l0.04,57.54c-0.37,14.35,6.92,28.46,20.23,36.14c13.15,7.59,28.8,6.97,40.98-0.29
				L385.33,145.75z"/>
			<path class="st0" d="M385.34,145.75c-8.47,4.61-18.44,6.11-28.04,4.01c0,0-2.34-0.55-3.5-0.85c7.27-25.7,7.02-52.48,0.04-77.4
				c0,0,1.76-0.44,2.65-0.65c9.74-2.35,20.36-1.1,29.71,4.3c19.36,11.18,25.99,35.93,14.82,55.29
				C397.15,137.14,391.66,142.31,385.34,145.75z"/>
		</g>
	</g>
	<g id="_x3C_Radial_Repeat_x3E__00000093894241023826391470000014343723233732541604_">
		<g>
			<path class="st0" d="M429.56,147.1c0.87,0.24,1.75,0.5,2.62,0.76c9.61,2.84,18.18,9.22,23.58,18.58l-29.85-51.7
				c-11.18-19.36-35.93-25.99-55.29-14.82c-6.69,3.86-11.86,9.35-15.31,15.68c-4.61,8.47-6.11,18.44-4.01,28.04l0.85,3.51
				C377.85,139.87,404.64,140.12,429.56,147.1z"/>
			<path class="st0" d="M419.72,227.14c-9.64-0.25-19.03-3.93-26.29-10.55c0,0-1.75-1.65-2.61-2.49
				c-9.13-8.93-17.21-19.24-23.91-30.84c-6.7-11.6-11.59-23.75-14.75-36.13c-0.3-1.17-0.85-3.51-0.85-3.51
				c-2.1-9.59-0.6-19.57,4.01-28.04l-28.73,49.85c-7.5,12.24-8.23,28.11-0.55,41.41c7.59,13.15,21.46,20.43,35.64,20.24
				L419.72,227.14z"/>
			<path class="st0" d="M419.72,227.15c-9.64-0.25-19.03-3.93-26.29-10.55c0,0-1.75-1.65-2.61-2.49
				c19.14-18.62,32.32-41.94,38.74-67.01c0,0,1.75,0.5,2.62,0.76c9.61,2.84,18.18,9.22,23.58,18.58
				c11.18,19.36,4.54,44.12-14.82,55.29C434.25,225.59,426.92,227.33,419.72,227.15z"/>
		</g>
	</g>
	<g id="_x3C_Radial_Repeat_x3E__00000101074182501588413240000004643840057686551456_">
		<g>
			<path class="st0" d="M457.35,250.43c0.63,0.65,1.26,1.31,1.88,1.97c6.9,7.26,11.13,17.08,11.14,27.88l0-59.7
				c0-22.35-18.12-40.48-40.48-40.48c-7.73,0-14.95,2.17-21.09,5.92c-8.22,5.03-14.51,12.92-17.49,22.28l-1.02,3.46
				C416.18,218.31,439.25,231.92,457.35,250.43z"/>
			<path class="st0" d="M408.8,314.83c-8.22-5.03-14.51-12.92-17.49-22.28c0,0-0.69-2.3-1.02-3.46c-3.45-12.3-5.29-25.27-5.29-38.66
				c0-13.4,1.84-26.37,5.29-38.66c0.32-1.16,1.02-3.46,1.02-3.46c2.98-9.36,9.26-17.24,17.49-22.28l-49.81,28.81
				c-12.62,6.85-21.18,20.22-21.18,35.59c0,15.19,8.37,28.42,20.74,35.35L408.8,314.83z"/>
			<path class="st0" d="M408.8,314.83c-8.22-5.03-14.51-12.92-17.49-22.28c0,0-0.69-2.3-1.02-3.46
				c25.89-6.55,48.96-20.16,67.06-38.66c0,0,1.26,1.31,1.88,1.97c6.9,7.26,11.13,17.08,11.14,27.88c0,22.35-18.12,40.48-40.48,40.48
				C422.16,320.75,414.94,318.59,408.8,314.83z"/>
		</g>
	</g>
	<g id="_x3C_Radial_Repeat_x3E__00000106866137520846829000000005943162441823514035_">
		<g>
			<path class="st0" d="M429.74,353.8c0.23,0.88,0.44,1.76,0.65,2.65c2.35,9.74,1.1,20.36-4.3,29.71l29.85-51.7
				c11.18-19.36,4.54-44.12-14.82-55.29c-6.69-3.86-14.03-5.6-21.23-5.42c-9.64,0.24-19.03,3.93-26.28,10.55l-2.61,2.49
				C410.15,305.41,423.32,328.73,429.74,353.8z"/>
			<path class="st0" d="M355.5,385.3c-4.61-8.47-6.11-18.44-4.01-28.04c0,0,0.55-2.34,0.85-3.5c3.17-12.37,8.05-24.52,14.75-36.13
				c6.7-11.6,14.78-21.91,23.91-30.84c0.86-0.84,2.61-2.49,2.61-2.49c7.26-6.62,16.65-10.3,26.28-10.55l-57.54,0.04
				c-14.35-0.37-28.46,6.92-36.14,20.23c-7.59,13.15-6.97,28.8,0.29,40.98L355.5,385.3z"/>
			<path class="st0" d="M355.5,385.3c-4.61-8.47-6.11-18.44-4.01-28.04c0,0,0.55-2.34,0.85-3.5c25.7,7.27,52.48,7.02,77.4,0.04
				c0,0,0.44,1.76,0.65,2.65c2.35,9.74,1.1,20.36-4.3,29.71c-11.18,19.36-35.93,25.99-55.29,14.82
				C364.11,397.12,358.94,391.63,355.5,385.3z"/>
		</g>
	</g>
	<g id="_x3C_Radial_Repeat_x3E__00000018918116508368856390000017914566348399471259_">
		<g>
			<path class="st0" d="M354.15,429.53c-0.24,0.87-0.5,1.75-0.76,2.62c-2.84,9.61-9.22,18.18-18.58,23.58l51.7-29.85
				c19.36-11.18,25.99-35.93,14.82-55.29c-3.86-6.69-9.35-11.86-15.68-15.31c-8.47-4.61-18.44-6.11-28.04-4.01l-3.51,0.85
				C361.37,377.82,361.12,404.61,354.15,429.53z"/>
			<path class="st0" d="M274.1,419.69c0.25-9.64,3.93-19.03,10.55-26.29c0,0,1.65-1.75,2.49-2.61c8.93-9.13,19.24-17.21,30.84-23.91
				c11.6-6.7,23.75-11.59,36.13-14.75c1.17-0.3,3.51-0.85,3.51-0.85c9.59-2.1,19.57-0.6,28.04,4.01l-49.85-28.73
				c-12.24-7.5-28.11-8.23-41.41-0.55c-13.15,7.59-20.43,21.46-20.24,35.64L274.1,419.69z"/>
			<path class="st0" d="M274.1,419.69c0.24-9.64,3.93-19.03,10.55-26.29c0,0,1.65-1.75,2.49-2.61
				c18.62,19.14,41.94,32.32,67.01,38.74c0,0-0.5,1.75-0.76,2.62c-2.84,9.61-9.22,18.18-18.58,23.58
				c-19.36,11.18-44.12,4.54-55.29-14.82C275.65,434.22,273.92,426.89,274.1,419.69z"/>
		</g>
	</g>
</g>
</svg>
